<?xml version="1.0" encoding="UTF-8" standalone="no"?>
<svg
   xmlns:dc="http://purl.org/dc/elements/1.1/"
   xmlns:cc="http://creativecommons.org/ns#"
   xmlns:rdf="http://www.w3.org/1999/02/22-rdf-syntax-ns#"
   xmlns:svg="http://www.w3.org/2000/svg"
   xmlns="http://www.w3.org/2000/svg"
   xmlns:sodipodi="http://sodipodi.sourceforge.net/DTD/sodipodi-0.dtd"
   xmlns:inkscape="http://www.inkscape.org/namespaces/inkscape"
   version="1.1"
   id="svg836"
   xml:space="preserve"
   width="122.97948"
   height="268.79172"
   viewBox="0 0 122.97948 268.79172"
   sodipodi:docname="image3.svg"
   inkscape:version="1.0.2 (e86c870879, 2021-01-15, custom)"><metadata
     id="metadata842"><rdf:RDF><cc:Work
         rdf:about=""><dc:format>image/svg+xml</dc:format><dc:type
           rdf:resource="http://purl.org/dc/dcmitype/StillImage" /><dc:title></dc:title></cc:Work></rdf:RDF></metadata><defs
     id="defs840"><clipPath
       clipPathUnits="userSpaceOnUse"
       id="clipPath1228"><path
         d="m 318.04,729 h 240 V 493.8 h -240 z"
         id="path1226" /></clipPath><clipPath
       clipPathUnits="userSpaceOnUse"
       id="clipPath1238"><path
         d="M 318.28,728.76 H 557.92 V 494.04 H 318.28 Z"
         id="path1236" /></clipPath><clipPath
       clipPathUnits="userSpaceOnUse"
       id="clipPath1372"><path
         d="m 318.04,458.76 h 240 v -234 h -240 z"
         id="path1370" /></clipPath><clipPath
       clipPathUnits="userSpaceOnUse"
       id="clipPath1382"><path
         d="M 318.76,458.76 H 557.44 V 224.88 H 318.76 Z"
         id="path1380" /></clipPath></defs><sodipodi:namedview
     pagecolor="#ffffff"
     bordercolor="#666666"
     borderopacity="1"
     objecttolerance="10"
     gridtolerance="10"
     guidetolerance="10"
     inkscape:pageopacity="0"
     inkscape:pageshadow="2"
     inkscape:window-width="2560"
     inkscape:window-height="1377"
     id="namedview838"
     showgrid="false"
     lock-margins="true"
     fit-margin-top="10"
     fit-margin-left="10"
     fit-margin-right="10"
     fit-margin-bottom="10"
     inkscape:zoom="0.95454545"
     inkscape:cx="159.78577"
     inkscape:cy="-114.21635"
     inkscape:window-x="2552"
     inkscape:window-y="-8"
     inkscape:window-maximized="1"
     inkscape:current-layer="g844" /><g
     id="g844"
     inkscape:groupmode="layer"
     inkscape:label="Sharp photodevices"
     transform="matrix(1.3333333,0,0,-1.3333333,-248.21423,413.78365)"><g
       id="g2197"><path
         d="m 227.974,285.68 c 1.77,0 3.205,1.435 3.205,3.205 0,1.77 -1.435,3.205 -3.205,3.205 -1.77,0 -3.205,-1.435 -3.205,-3.205 0,-1.77 1.435,-3.205 3.205,-3.205 z"
         style="fill:none;stroke:#000000;stroke-width:0.49;stroke-linecap:butt;stroke-linejoin:miter;stroke-miterlimit:4;stroke-dasharray:none;stroke-opacity:1"
         id="path1158" /><text
         transform="matrix(1,0,0,-1,220.535,297.225)"
         style="font-variant:normal;font-weight:normal;font-size:7.841px;font-family:Helvetica;-inkscape-font-specification:Helvetica;writing-mode:lr-tb;fill:#000000;fill-opacity:1;fill-rule:nonzero;stroke:none"
         id="text1162"><tspan
           x="0"
           y="0"
           id="tspan1160">V</tspan></text><text
         transform="matrix(1,0,0,-1,225.764,295.265)"
         style="font-variant:normal;font-weight:normal;font-size:5.881px;font-family:Helvetica;-inkscape-font-specification:Helvetica;writing-mode:lr-tb;fill:#000000;fill-opacity:1;fill-rule:nonzero;stroke:none"
         id="text1166"><tspan
           x="0 4.2466702"
           y="0"
           sodipodi:role="line"
           id="tspan1164">CC</tspan></text><path
         d="m 228.008,122.641 v 26.464 m -5.298,-26.452 h 10.782 m -10.867,-0.142 -2.41,-6.178 m 13.191,6.178 -2.409,-6.178 m -2.982,6.178 -2.409,-6.178 m 2.402,48.208 v 81.105 m -0.062,-96.384 -2.818,1.286 m 0,0.123 5.636,2.45 m 0.184,0.062 -5.635,2.45 m -0.062,0.061 5.636,2.45 m 0.061,0.062 -5.635,2.45 m -0.185,0.061 5.636,2.45 m 0,0.123 -2.756,1.225 m -0.092,121.042 v -17.152 m 0.057,-73.847 h 17.642"
         style="fill:none;stroke:#000000;stroke-width:0.49;stroke-linecap:butt;stroke-linejoin:miter;stroke-miterlimit:4;stroke-dasharray:none;stroke-opacity:1"
         id="path1168" /><path
         d="m 227.935,193.129 c 0.885,0 1.603,0.717 1.603,1.602 0,0.885 -0.718,1.603 -1.603,1.603 -0.885,0 -1.602,-0.718 -1.602,-1.603 0,-0.885 0.717,-1.602 1.602,-1.602 z"
         style="fill:#000000;fill-opacity:1;fill-rule:nonzero;stroke:#000000;stroke-width:0.049;stroke-linecap:butt;stroke-linejoin:miter;stroke-miterlimit:4;stroke-dasharray:none;stroke-opacity:1"
         id="path1170" /><text
         transform="matrix(1,0,0,-1,232.854,153.515)"
         style="font-variant:normal;font-weight:normal;font-size:7.841px;font-family:Helvetica;-inkscape-font-specification:Helvetica;writing-mode:lr-tb;fill:#000000;fill-opacity:1;fill-rule:nonzero;stroke:none"
         id="text1174"><tspan
           x="0"
           y="0"
           id="tspan1172">R</tspan></text><text
         transform="matrix(1,0,0,-1,238.515,151.555)"
         style="font-variant:normal;font-weight:normal;font-size:5.881px;font-family:Helvetica;-inkscape-font-specification:Helvetica;writing-mode:lr-tb;fill:#000000;fill-opacity:1;fill-rule:nonzero;stroke:none"
         id="text1178"><tspan
           x="0"
           y="0"
           id="tspan1176">L</tspan></text><path
         d="m 199.316,263.432 3.449,-2.969 -4.281,1.623 0.832,1.346"
         style="fill:#000000;fill-opacity:1;fill-rule:nonzero;stroke:none"
         id="path1180" /><path
         d="m 193.758,265.564 7.24,-4.073"
         style="fill:none;stroke:#000000;stroke-width:0.397;stroke-linecap:butt;stroke-linejoin:miter;stroke-miterlimit:4;stroke-dasharray:none;stroke-opacity:1"
         id="path1182" /><path
         d="m 199.316,257.286 3.449,-2.968 -4.281,1.623 0.832,1.345"
         style="fill:#000000;fill-opacity:1;fill-rule:nonzero;stroke:none"
         id="path1184" /><path
         d="m 193.758,259.418 7.24,-4.072"
         style="fill:none;stroke:#000000;stroke-width:0.397;stroke-linecap:butt;stroke-linejoin:miter;stroke-miterlimit:4;stroke-dasharray:none;stroke-opacity:1"
         id="path1186" /><path
         d="m 222.911,249.794 4.538,-3.905 -5.633,2.135 1.095,1.77"
         style="fill:#000000;fill-opacity:1;fill-rule:nonzero;stroke:none"
         id="path1188" /><path
         d="m 219.61,243.482 c 7.747,0 14.028,6.28 14.028,14.028 0,7.748 -6.281,14.028 -14.028,14.028 -7.748,0 -14.029,-6.28 -14.029,-14.028 0,-7.748 6.281,-14.028 14.029,-14.028 z m 7.895,25.392 -11.908,-6.748 m -0.199,5.161 v -19.451 m 0.199,4.764 9.526,-5.359"
         style="fill:none;stroke:#000000;stroke-width:0.397;stroke-linecap:butt;stroke-linejoin:miter;stroke-miterlimit:4;stroke-dasharray:none;stroke-opacity:1"
         id="path1190" /><path
         d="m 248.557,191.589 c 1.77,0 3.205,1.435 3.205,3.205 0,1.77 -1.435,3.205 -3.205,3.205 -1.77,0 -3.205,-1.435 -3.205,-3.205 0,-1.77 1.435,-3.205 3.205,-3.205 z"
         style="fill:none;stroke:#000000;stroke-width:0.49;stroke-linecap:butt;stroke-linejoin:miter;stroke-miterlimit:4;stroke-dasharray:none;stroke-opacity:1"
         id="path1192" /><text
         transform="matrix(1,0,0,-1,253.368,191.862)"
         style="font-variant:normal;font-weight:normal;font-size:7.841px;font-family:Helvetica;-inkscape-font-specification:Helvetica;writing-mode:lr-tb;fill:#000000;fill-opacity:1;fill-rule:nonzero;stroke:none"
         id="text1196"><tspan
           x="0"
           y="0"
           id="tspan1194">V</tspan></text><text
         transform="matrix(1,0,0,-1,258.598,189.902)"
         style="font-variant:normal;font-weight:normal;font-size:5.881px;font-family:Helvetica;-inkscape-font-specification:Helvetica;writing-mode:lr-tb;fill:#000000;fill-opacity:1;fill-rule:nonzero;stroke:none"
         id="text1200"><tspan
           x="0 4.5760059 8.8226767"
           y="0"
           sodipodi:role="line"
           id="tspan1198">OUT</tspan></text></g></g></svg>
